<?xml version="1.0" standalone="no"?>
<!DOCTYPE svg PUBLIC "-//W3C//DTD SVG 20010904//EN"
 "http://www.w3.org/TR/2001/REC-SVG-20010904/DTD/svg10.dtd">
<svg version="1.0" xmlns="http://www.w3.org/2000/svg"
 width="980.000000pt" height="980.000000pt" viewBox="0 0 980.000000 980.000000"
 preserveAspectRatio="xMidYMid meet">
<metadata>
Created by potrace 1.11, written by Peter Selinger 2001-2013
</metadata>
<g transform="translate(0.000000,980.000000) scale(0.100000,-0.100000)"
fill="#000000" stroke="none">
<path d="M4240 7724 c0 -8 16 -81 36 -162 64 -261 172 -585 284 -851 28 -68
48 -127 43 -131 -4 -4 -71 -26 -148 -49 -782 -227 -1568 -600 -2264 -1073
l-125 -85 -89 89 c-313 314 -863 635 -1546 903 -207 81 -389 145 -414 145 -10
0 -17 -8 -17 -18 0 -67 185 -493 328 -757 172 -318 322 -524 545 -752 l158
-161 -106 -115 c-287 -309 -514 -645 -725 -1072 -117 -236 -200 -436 -200
-478 0 -15 2 -27 4 -27 12 0 208 69 356 125 674 256 1264 591 1595 907 l102
97 153 -109 c498 -356 1104 -666 1780 -910 80 -29 148 -55 153 -59 4 -4 -19
-68 -52 -142 -145 -331 -339 -945 -308 -976 18 -17 305 105 672 287 311 154
468 243 753 427 l192 125 138 -16 c304 -36 766 -47 1012 -26 243 22 700 95
700 112 0 6 -48 78 -107 160 -133 188 -188 279 -268 443 -142 292 -237 608
-266 880 -15 143 -15 610 0 745 33 293 149 657 307 958 66 128 174 295 269
417 71 91 72 110 3 129 -151 43 -582 86 -937 93 l-275 6 -85 65 c-112 86 -362
250 -526 344 -322 187 -826 433 -1044 509 -66 23 -81 24 -81 3z"/>
<path d="M7520 6509 c-358 -396 -561 -856 -620 -1406 -18 -167 -8 -554 19
-708 74 -428 216 -764 459 -1088 86 -113 199 -237 218 -237 8 0 76 23 151 51
342 126 727 334 1062 573 391 278 836 751 963 1023 54 114 30 204 -102 402
-219 324 -582 680 -950 930 -301 205 -580 348 -932 480 -202 75 -181 77 -268
-20z m693 -1099 c70 -26 131 -80 165 -144 22 -43 27 -64 27 -131 0 -99 -28
-159 -105 -228 -121 -109 -276 -101 -397 19 -124 125 -117 307 18 428 84 75
187 95 292 56z"/>
</g>
</svg>
